<mxfile host="app.diagrams.net" modified="2024-04-08T15:42:32.374Z" agent="Mozilla/5.0 (Windows NT 10.0; Win64; x64) AppleWebKit/537.36 (KHTML, like Gecko) Chrome/123.0.0.0 Safari/537.36" etag="CMEGKBfK9lzFLx5_cego" version="24.2.0" type="device">
  <diagram name="Page-1" id="uJ7M2Qh1kCDteq53ik2g">
    <mxGraphModel dx="1434" dy="1146" grid="0" gridSize="10" guides="1" tooltips="1" connect="1" arrows="1" fold="1" page="0" pageScale="1" pageWidth="850" pageHeight="1100" math="0" shadow="0">
      <root>
        <mxCell id="0" />
        <mxCell id="1" parent="0" />
        <mxCell id="YR5qiR9CVOwMjyfQzDzb-17" style="edgeStyle=orthogonalEdgeStyle;rounded=0;orthogonalLoop=1;jettySize=auto;html=1;exitX=0.5;exitY=0;exitDx=0;exitDy=0;entryX=0.5;entryY=1;entryDx=0;entryDy=0;strokeColor=default;align=center;verticalAlign=middle;fontFamily=Helvetica;fontSize=11;fontColor=default;labelBackgroundColor=default;endArrow=none;endFill=0;" edge="1" parent="1" source="YR5qiR9CVOwMjyfQzDzb-1" target="YR5qiR9CVOwMjyfQzDzb-16">
          <mxGeometry relative="1" as="geometry" />
        </mxCell>
        <mxCell id="YR5qiR9CVOwMjyfQzDzb-35" style="edgeStyle=orthogonalEdgeStyle;rounded=0;orthogonalLoop=1;jettySize=auto;html=1;exitX=1;exitY=0.5;exitDx=0;exitDy=0;entryX=0;entryY=0.5;entryDx=0;entryDy=0;strokeColor=default;align=center;verticalAlign=middle;fontFamily=Helvetica;fontSize=11;fontColor=default;labelBackgroundColor=default;endArrow=none;endFill=0;" edge="1" parent="1" source="YR5qiR9CVOwMjyfQzDzb-1" target="YR5qiR9CVOwMjyfQzDzb-33">
          <mxGeometry relative="1" as="geometry" />
        </mxCell>
        <mxCell id="YR5qiR9CVOwMjyfQzDzb-1" value="MUEBLE" style="whiteSpace=wrap;html=1;align=center;" vertex="1" parent="1">
          <mxGeometry x="51" y="109" width="100" height="40" as="geometry" />
        </mxCell>
        <mxCell id="YR5qiR9CVOwMjyfQzDzb-2" value="TIPO_MUEBLE" style="whiteSpace=wrap;html=1;align=center;" vertex="1" parent="1">
          <mxGeometry x="51" y="-123.5" width="100" height="40" as="geometry" />
        </mxCell>
        <mxCell id="YR5qiR9CVOwMjyfQzDzb-31" style="edgeStyle=orthogonalEdgeStyle;rounded=0;orthogonalLoop=1;jettySize=auto;html=1;exitX=0;exitY=0.5;exitDx=0;exitDy=0;strokeColor=default;align=center;verticalAlign=middle;fontFamily=Helvetica;fontSize=11;fontColor=default;labelBackgroundColor=default;endArrow=none;endFill=0;entryX=1;entryY=0.5;entryDx=0;entryDy=0;" edge="1" parent="1" source="YR5qiR9CVOwMjyfQzDzb-3" target="YR5qiR9CVOwMjyfQzDzb-29">
          <mxGeometry relative="1" as="geometry">
            <mxPoint x="672" y="129" as="targetPoint" />
          </mxGeometry>
        </mxCell>
        <mxCell id="YR5qiR9CVOwMjyfQzDzb-3" value="VENDEDOR" style="whiteSpace=wrap;html=1;align=center;" vertex="1" parent="1">
          <mxGeometry x="708.5" y="109" width="100" height="40" as="geometry" />
        </mxCell>
        <mxCell id="YR5qiR9CVOwMjyfQzDzb-4" value="ENTREGA" style="whiteSpace=wrap;html=1;align=center;" vertex="1" parent="1">
          <mxGeometry x="416" y="368" width="100" height="40" as="geometry" />
        </mxCell>
        <mxCell id="YR5qiR9CVOwMjyfQzDzb-7" style="edgeStyle=orthogonalEdgeStyle;rounded=0;orthogonalLoop=1;jettySize=auto;html=1;exitX=0.5;exitY=1;exitDx=0;exitDy=0;endArrow=none;endFill=0;" edge="1" parent="1" source="YR5qiR9CVOwMjyfQzDzb-5" target="YR5qiR9CVOwMjyfQzDzb-44">
          <mxGeometry relative="1" as="geometry">
            <mxPoint x="466" y="-3.5" as="targetPoint" />
          </mxGeometry>
        </mxCell>
        <mxCell id="YR5qiR9CVOwMjyfQzDzb-5" value="CLIENTE" style="whiteSpace=wrap;html=1;align=center;" vertex="1" parent="1">
          <mxGeometry x="416" y="-99" width="100" height="40" as="geometry" />
        </mxCell>
        <mxCell id="YR5qiR9CVOwMjyfQzDzb-18" style="edgeStyle=orthogonalEdgeStyle;rounded=0;orthogonalLoop=1;jettySize=auto;html=1;exitX=0.5;exitY=0;exitDx=0;exitDy=0;entryX=0.5;entryY=1;entryDx=0;entryDy=0;strokeColor=default;align=center;verticalAlign=middle;fontFamily=Helvetica;fontSize=11;fontColor=default;labelBackgroundColor=default;endArrow=none;endFill=0;" edge="1" parent="1" source="YR5qiR9CVOwMjyfQzDzb-16" target="YR5qiR9CVOwMjyfQzDzb-2">
          <mxGeometry relative="1" as="geometry" />
        </mxCell>
        <mxCell id="YR5qiR9CVOwMjyfQzDzb-16" value="" style="shape=rhombus;perimeter=rhombusPerimeter;whiteSpace=wrap;html=1;align=center;" vertex="1" parent="1">
          <mxGeometry x="74.75" y="-21" width="52.5" height="49" as="geometry" />
        </mxCell>
        <mxCell id="YR5qiR9CVOwMjyfQzDzb-19" value="1" style="text;html=1;align=center;verticalAlign=middle;whiteSpace=wrap;rounded=0;fontFamily=Helvetica;fontSize=11;fontColor=default;labelBackgroundColor=default;" vertex="1" parent="1">
          <mxGeometry x="91" y="-83.5" width="60" height="30" as="geometry" />
        </mxCell>
        <mxCell id="YR5qiR9CVOwMjyfQzDzb-24" value="0..1" style="text;html=1;align=center;verticalAlign=middle;whiteSpace=wrap;rounded=0;fontFamily=Helvetica;fontSize=11;fontColor=default;labelBackgroundColor=default;" vertex="1" parent="1">
          <mxGeometry x="418" y="332" width="69" height="33" as="geometry" />
        </mxCell>
        <mxCell id="YR5qiR9CVOwMjyfQzDzb-25" value="&lt;u&gt;codigo&lt;/u&gt;&lt;div&gt;descripcion&lt;/div&gt;" style="ellipse;whiteSpace=wrap;html=1;align=center;fontFamily=Helvetica;fontSize=11;fontColor=default;labelBackgroundColor=default;" vertex="1" parent="1">
          <mxGeometry x="139" y="-96" width="100" height="40" as="geometry" />
        </mxCell>
        <mxCell id="YR5qiR9CVOwMjyfQzDzb-36" style="edgeStyle=orthogonalEdgeStyle;rounded=0;orthogonalLoop=1;jettySize=auto;html=1;exitX=0;exitY=0.5;exitDx=0;exitDy=0;entryX=1;entryY=0.5;entryDx=0;entryDy=0;strokeColor=default;align=center;verticalAlign=middle;fontFamily=Helvetica;fontSize=11;fontColor=default;labelBackgroundColor=default;endArrow=none;endFill=0;" edge="1" parent="1" source="YR5qiR9CVOwMjyfQzDzb-28" target="YR5qiR9CVOwMjyfQzDzb-33">
          <mxGeometry relative="1" as="geometry" />
        </mxCell>
        <mxCell id="YR5qiR9CVOwMjyfQzDzb-28" value="VENTA" style="whiteSpace=wrap;html=1;align=center;" vertex="1" parent="1">
          <mxGeometry x="416" y="109" width="100" height="40" as="geometry" />
        </mxCell>
        <mxCell id="YR5qiR9CVOwMjyfQzDzb-32" style="edgeStyle=orthogonalEdgeStyle;rounded=0;orthogonalLoop=1;jettySize=auto;html=1;exitX=0;exitY=0.5;exitDx=0;exitDy=0;strokeColor=default;align=center;verticalAlign=middle;fontFamily=Helvetica;fontSize=11;fontColor=default;labelBackgroundColor=default;endArrow=none;endFill=0;" edge="1" parent="1" source="YR5qiR9CVOwMjyfQzDzb-29" target="YR5qiR9CVOwMjyfQzDzb-28">
          <mxGeometry relative="1" as="geometry" />
        </mxCell>
        <mxCell id="YR5qiR9CVOwMjyfQzDzb-29" value="" style="shape=rhombus;perimeter=rhombusPerimeter;whiteSpace=wrap;html=1;align=center;" vertex="1" parent="1">
          <mxGeometry x="590" y="104.5" width="49" height="49" as="geometry" />
        </mxCell>
        <mxCell id="YR5qiR9CVOwMjyfQzDzb-33" value="venta_mueble" style="shape=rhombus;perimeter=rhombusPerimeter;whiteSpace=wrap;html=1;align=center;" vertex="1" parent="1">
          <mxGeometry x="216" y="104.5" width="113" height="49" as="geometry" />
        </mxCell>
        <mxCell id="YR5qiR9CVOwMjyfQzDzb-37" value="cantidad" style="ellipse;whiteSpace=wrap;html=1;align=center;fontFamily=Helvetica;fontSize=11;fontColor=default;labelBackgroundColor=default;" vertex="1" parent="1">
          <mxGeometry x="216" y="71" width="100" height="40" as="geometry" />
        </mxCell>
        <mxCell id="YR5qiR9CVOwMjyfQzDzb-38" value="&lt;u&gt;codigo&lt;/u&gt;&lt;div&gt;descripcion&lt;/div&gt;&lt;div&gt;stock&lt;/div&gt;" style="ellipse;whiteSpace=wrap;html=1;align=center;fontFamily=Helvetica;fontSize=11;fontColor=default;labelBackgroundColor=default;" vertex="1" parent="1">
          <mxGeometry x="45" y="169" width="104" height="49" as="geometry" />
        </mxCell>
        <mxCell id="YR5qiR9CVOwMjyfQzDzb-41" style="edgeStyle=orthogonalEdgeStyle;rounded=0;orthogonalLoop=1;jettySize=auto;html=1;exitX=0.5;exitY=1;exitDx=0;exitDy=0;strokeColor=default;align=center;verticalAlign=middle;fontFamily=Helvetica;fontSize=11;fontColor=default;labelBackgroundColor=default;endArrow=none;endFill=0;" edge="1" parent="1" source="YR5qiR9CVOwMjyfQzDzb-39" target="YR5qiR9CVOwMjyfQzDzb-4">
          <mxGeometry relative="1" as="geometry" />
        </mxCell>
        <mxCell id="YR5qiR9CVOwMjyfQzDzb-42" style="edgeStyle=orthogonalEdgeStyle;rounded=0;orthogonalLoop=1;jettySize=auto;html=1;exitX=0.5;exitY=0;exitDx=0;exitDy=0;strokeColor=default;align=center;verticalAlign=middle;fontFamily=Helvetica;fontSize=11;fontColor=default;labelBackgroundColor=default;endArrow=none;endFill=0;" edge="1" parent="1" source="YR5qiR9CVOwMjyfQzDzb-39" target="YR5qiR9CVOwMjyfQzDzb-28">
          <mxGeometry relative="1" as="geometry" />
        </mxCell>
        <mxCell id="YR5qiR9CVOwMjyfQzDzb-39" value="venta_entrega" style="shape=rhombus;perimeter=rhombusPerimeter;whiteSpace=wrap;html=1;align=center;" vertex="1" parent="1">
          <mxGeometry x="409.5" y="227" width="113" height="49" as="geometry" />
        </mxCell>
        <mxCell id="YR5qiR9CVOwMjyfQzDzb-40" value="&lt;u&gt;codigo&lt;/u&gt;&lt;div&gt;fecha_entrega&lt;/div&gt;&lt;div&gt;direccion_entrega&lt;/div&gt;" style="ellipse;whiteSpace=wrap;html=1;align=center;fontFamily=Helvetica;fontSize=11;fontColor=default;labelBackgroundColor=default;" vertex="1" parent="1">
          <mxGeometry x="319" y="375" width="113" height="63" as="geometry" />
        </mxCell>
        <mxCell id="YR5qiR9CVOwMjyfQzDzb-43" value="&lt;u&gt;codigo&lt;/u&gt;&lt;div&gt;fecha_venta&lt;/div&gt;" style="ellipse;whiteSpace=wrap;html=1;align=center;fontFamily=Helvetica;fontSize=11;fontColor=default;labelBackgroundColor=default;" vertex="1" parent="1">
          <mxGeometry x="480" y="76" width="100" height="40" as="geometry" />
        </mxCell>
        <mxCell id="YR5qiR9CVOwMjyfQzDzb-45" style="edgeStyle=orthogonalEdgeStyle;rounded=0;orthogonalLoop=1;jettySize=auto;html=1;exitX=0.5;exitY=1;exitDx=0;exitDy=0;entryX=0.5;entryY=0;entryDx=0;entryDy=0;strokeColor=default;align=center;verticalAlign=middle;fontFamily=Helvetica;fontSize=11;fontColor=default;labelBackgroundColor=default;endArrow=none;endFill=0;" edge="1" parent="1" source="YR5qiR9CVOwMjyfQzDzb-44" target="YR5qiR9CVOwMjyfQzDzb-28">
          <mxGeometry relative="1" as="geometry" />
        </mxCell>
        <mxCell id="YR5qiR9CVOwMjyfQzDzb-44" value="venta_cliente" style="shape=rhombus;perimeter=rhombusPerimeter;whiteSpace=wrap;html=1;align=center;" vertex="1" parent="1">
          <mxGeometry x="409.5" y="-5" width="113" height="49" as="geometry" />
        </mxCell>
        <mxCell id="YR5qiR9CVOwMjyfQzDzb-46" value="&lt;u&gt;cuit&lt;/u&gt;&lt;div&gt;nombre&lt;/div&gt;&lt;div&gt;apellido&lt;/div&gt;&lt;div&gt;mail&lt;/div&gt;&lt;div&gt;fecha_ini&lt;/div&gt;" style="ellipse;whiteSpace=wrap;html=1;align=center;fontFamily=Helvetica;fontSize=11;fontColor=default;labelBackgroundColor=default;" vertex="1" parent="1">
          <mxGeometry x="719" y="53" width="106" height="61" as="geometry" />
        </mxCell>
        <mxCell id="YR5qiR9CVOwMjyfQzDzb-47" value="&lt;u&gt;cuit&lt;/u&gt;&lt;div&gt;nombre&lt;/div&gt;&lt;div&gt;apellido&lt;/div&gt;&lt;div&gt;mail&lt;/div&gt;" style="ellipse;whiteSpace=wrap;html=1;align=center;fontFamily=Helvetica;fontSize=11;fontColor=default;labelBackgroundColor=default;" vertex="1" parent="1">
          <mxGeometry x="511" y="-134" width="106" height="61" as="geometry" />
        </mxCell>
        <mxCell id="YR5qiR9CVOwMjyfQzDzb-48" value="0...n" style="text;html=1;align=center;verticalAlign=middle;whiteSpace=wrap;rounded=0;fontFamily=Helvetica;fontSize=11;fontColor=default;labelBackgroundColor=default;" vertex="1" parent="1">
          <mxGeometry x="87" y="74.5" width="60" height="30" as="geometry" />
        </mxCell>
        <mxCell id="YR5qiR9CVOwMjyfQzDzb-49" value="1...n" style="text;html=1;align=center;verticalAlign=middle;whiteSpace=wrap;rounded=0;fontFamily=Helvetica;fontSize=11;fontColor=default;labelBackgroundColor=default;" vertex="1" parent="1">
          <mxGeometry x="144" y="102" width="60" height="30" as="geometry" />
        </mxCell>
        <mxCell id="YR5qiR9CVOwMjyfQzDzb-50" value="0...m" style="text;html=1;align=center;verticalAlign=middle;whiteSpace=wrap;rounded=0;fontFamily=Helvetica;fontSize=11;fontColor=default;labelBackgroundColor=default;" vertex="1" parent="1">
          <mxGeometry x="368" y="99" width="60" height="30" as="geometry" />
        </mxCell>
        <mxCell id="YR5qiR9CVOwMjyfQzDzb-51" value="1" style="text;html=1;align=center;verticalAlign=middle;whiteSpace=wrap;rounded=0;fontFamily=Helvetica;fontSize=11;fontColor=default;labelBackgroundColor=default;" vertex="1" parent="1">
          <mxGeometry x="420" y="-59" width="60" height="30" as="geometry" />
        </mxCell>
        <mxCell id="YR5qiR9CVOwMjyfQzDzb-52" value="1...n" style="text;html=1;align=center;verticalAlign=middle;whiteSpace=wrap;rounded=0;fontFamily=Helvetica;fontSize=11;fontColor=default;labelBackgroundColor=default;" vertex="1" parent="1">
          <mxGeometry x="414" y="76" width="60" height="30" as="geometry" />
        </mxCell>
        <mxCell id="YR5qiR9CVOwMjyfQzDzb-53" value="0...n" style="text;html=1;align=center;verticalAlign=middle;whiteSpace=wrap;rounded=0;fontFamily=Helvetica;fontSize=11;fontColor=default;labelBackgroundColor=default;" vertex="1" parent="1">
          <mxGeometry x="511" y="129" width="60" height="30" as="geometry" />
        </mxCell>
        <mxCell id="YR5qiR9CVOwMjyfQzDzb-54" value="1" style="text;html=1;align=center;verticalAlign=middle;whiteSpace=wrap;rounded=0;fontFamily=Helvetica;fontSize=11;fontColor=default;labelBackgroundColor=default;" vertex="1" parent="1">
          <mxGeometry x="667" y="129" width="60" height="30" as="geometry" />
        </mxCell>
        <mxCell id="YR5qiR9CVOwMjyfQzDzb-55" value="0..1" style="text;html=1;align=center;verticalAlign=middle;whiteSpace=wrap;rounded=0;fontFamily=Helvetica;fontSize=11;fontColor=default;labelBackgroundColor=default;" vertex="1" parent="1">
          <mxGeometry x="414" y="146" width="60" height="30" as="geometry" />
        </mxCell>
      </root>
    </mxGraphModel>
  </diagram>
</mxfile>
